<svg width="43" height="50" viewBox="0 0 43 50" fill="none" xmlns="http://www.w3.org/2000/svg">
<rect width="43" height="50" fill="white"/>
<path d="M20.3841 37.4951C20.2521 37.4951 20.1831 37.3381 20.2731 37.2411C20.3201 37.1911 20.3661 37.1401 20.4111 37.0871C21.5821 35.7321 21.9701 34.0221 22.0901 32.8271C22.1491 32.2341 22.0481 31.4491 22.0441 31.4161C22.0341 31.3421 22.0231 31.2681 22.0111 31.1951C21.9261 30.6761 21.8081 30.2501 21.6281 29.8151C21.5871 29.7171 21.6391 29.6051 21.7401 29.5731C21.8401 29.5411 21.8931 29.5191 21.9791 29.4921C22.1261 29.4471 22.2021 29.5521 22.2221 29.5711C22.7341 30.0571 23.2911 30.3111 23.9881 30.4341C24.1951 30.4701 24.4051 30.4891 24.6141 30.4891C25.1771 30.4891 25.7341 30.3571 26.2331 30.1031C26.3841 30.0261 26.4551 30.1231 26.4611 30.1291C26.9981 30.7091 27.7101 31.1081 28.4881 31.2461C28.6951 31.2821 28.9051 31.3011 29.1141 31.3011C29.5711 31.3011 30.0271 31.2131 30.4491 31.0431C30.5551 31.0001 30.6661 31.0921 30.6461 31.2051L29.8911 35.3851C29.6701 36.6081 28.6081 37.4951 27.3661 37.4951H20.3841Z" fill="#010101"/>
<path d="M29.1129 29.863C28.9879 29.863 28.8609 29.852 28.7369 29.83C27.9189 29.686 27.2509 29.076 27.0359 28.276C26.9779 28.061 26.7389 27.93 26.5079 28.026C26.4459 28.052 26.3949 28.098 26.3549 28.153C25.9539 28.715 25.3019 29.05 24.6129 29.05C24.4879 29.05 24.3609 29.039 24.2369 29.017C24.0199 28.979 23.8139 28.909 23.6219 28.81C23.5389 28.767 23.5249 28.655 23.5919 28.59C24.3789 27.822 24.7709 26.734 24.6459 25.628C24.6229 25.421 24.5809 25.213 24.5209 25.012C24.0739 23.497 22.6609 22.439 21.0849 22.439C20.7449 22.439 20.4059 22.488 20.0779 22.585L14.5419 24.284C14.4249 24.32 14.3029 24.245 14.2809 24.125L12.0329 11.58C11.9339 11.018 12.0599 10.452 12.3889 9.984C12.7179 9.516 13.2099 9.204 13.7749 9.104C13.8999 9.082 14.0259 9.071 14.1509 9.071C15.1909 9.071 16.0769 9.813 16.2569 10.835L17.7679 19.453C17.8259 19.784 18.1019 20.015 18.4369 20.015C18.7719 20.015 19.0479 19.784 19.1059 19.453L20.6939 10.765C20.8759 9.742 21.7609 9 22.8009 9C22.9259 9 23.0529 9.011 23.1769 9.033C23.7409 9.133 24.2339 9.445 24.5629 9.913C24.8919 10.381 25.0189 10.947 24.9199 11.509L23.4719 19.449C23.4509 19.563 23.4809 19.679 23.5539 19.767C23.6279 19.856 23.7409 19.909 23.8559 19.909C23.9589 19.909 24.0569 19.868 24.1309 19.793C24.5309 19.391 25.0849 19.161 25.6499 19.161C25.7749 19.161 25.9019 19.172 26.0259 19.194C26.8299 19.336 27.4739 19.906 27.7089 20.685C27.7599 20.854 27.9039 20.984 28.0799 20.996C28.2209 21.005 28.3519 20.944 28.4359 20.832C28.8389 20.294 29.4799 19.974 30.1499 19.974C30.2749 19.974 30.4019 19.985 30.5259 20.007C31.6909 20.213 32.4729 21.323 32.2679 22.483L31.2179 28.098C31.0379 29.121 30.1529 29.863 29.1129 29.863Z" fill="#010101"/>
<path d="M23.1398 25.4189C22.8718 24.5109 22.0278 23.8779 21.0868 23.8779C20.8838 23.8779 20.6808 23.9069 20.4858 23.9649L13.6548 26.0429C12.9158 26.2669 12.4618 27.0099 12.5998 27.7699L14.3208 37.2609C14.3458 37.3969 14.4638 37.4949 14.6018 37.4949H17.0258C18.1378 37.3979 18.9228 36.7399 19.3848 36.2049C20.2408 35.2149 20.7508 33.7719 20.7508 32.3459C20.7508 32.0219 20.7248 31.7099 20.6738 31.4159C20.6048 31.0189 20.4898 30.6159 20.3288 30.2129C20.2868 30.1069 20.1708 30.0509 20.0628 30.0839L16.8008 31.0829C16.7008 31.1139 16.5908 31.0989 16.4978 31.0349C16.4188 30.9799 16.3688 30.8929 16.3518 30.7979L16.2278 30.1169C16.1918 29.9209 16.3088 29.7289 16.4998 29.6699L21.6988 28.0779C22.8268 27.7469 23.4738 26.5529 23.1398 25.4189Z" fill="#0091E2"/>
</svg>
